<svg width="211" height="211" viewBox="0 0 211 211" fill="none" xmlns="http://www.w3.org/2000/svg">
<g clip-path="url(#clip0_3601_3987)">
<path fill-rule="evenodd" clip-rule="evenodd" d="M210.646 75.7012C210.646 65.2248 206.499 55.1796 199.093 47.7741C191.688 40.3653 181.616 36.2051 171.15 36.2051H146.366L140.145 23.7342C137.907 19.2744 133.365 16.457 128.362 16.457H82.2835C77.3136 16.457 72.7388 19.2744 70.5007 23.7342L64.28 36.2051H13.1654C5.8915 36.2051 0 42.0999 0 49.3704V154.693C0 176.505 17.6745 194.189 39.4961 194.189H197.48C204.754 194.189 210.646 188.295 210.646 181.024V75.7012ZM105.323 62.5358C76.2604 62.5358 52.6614 86.1314 52.6614 115.197C52.6614 144.263 76.2604 167.859 105.323 167.859C134.385 167.859 157.984 144.263 157.984 115.197C157.984 86.1314 134.385 62.5358 105.323 62.5358ZM105.323 75.7012C83.5342 75.7012 65.8268 93.3987 65.8268 115.197C65.8268 136.996 83.5342 154.693 105.323 154.693C127.112 154.693 144.819 136.996 144.819 115.197C144.819 93.3987 127.112 75.7012 105.323 75.7012ZM32.9134 78.9925H39.4961C46.7699 78.9925 52.6614 73.0944 52.6614 65.8271C52.6614 58.5599 46.7699 52.6618 39.4961 52.6618H32.9134C25.6395 52.6618 19.748 58.5599 19.748 65.8271C19.748 73.0944 25.6395 78.9925 32.9134 78.9925Z" fill="#ECEFF1"/>
</g>
<defs>
<clipPath id="clip0_3601_3987">
<rect width="210.646" height="210.646" fill="white"/>
</clipPath>
</defs>
</svg>
