<svg width="211" height="211" viewBox="0 0 211 211" fill="none" xmlns="http://www.w3.org/2000/svg">
<g clip-path="url(#clip0_3601_3976)">
<path d="M92.8187 43.6387L22.0886 79.6768C20.3281 80.5741 19.1017 82.2597 18.7903 84.211L0 201.896L87.9335 113.963C87.5497 110.956 88.4992 107.811 90.8011 105.508C92.7158 103.592 95.2609 102.538 97.9684 102.538C100.674 102.538 103.219 103.592 105.133 105.506C109.084 109.456 109.084 115.885 105.135 119.836C103.22 121.752 100.676 122.805 97.9688 122.805C97.529 122.805 97.0933 122.774 96.6634 122.72L8.74386 210.64L126.43 191.849C128.382 191.538 130.066 190.312 130.964 188.551L167.003 117.822L92.8187 43.6387Z" fill="#ECEFF1"/>
<path d="M208.832 75.1336L135.509 1.81113C134.224 0.525864 132.438 -0.128702 130.627 0.0210544C128.816 0.171222 127.162 1.11049 126.106 2.58953L102.416 35.7572L174.886 108.227L208.053 84.5365C209.532 83.48 210.472 81.8269 210.621 80.015C210.771 78.204 210.117 76.4188 208.832 75.1336Z" fill="#ECEFF1"/>
</g>
<defs>
<clipPath id="clip0_3601_3976">
<rect width="210.646" height="210.646" fill="white"/>
</clipPath>
</defs>
</svg>
