<svg width="200" height="200" viewBox="0 0 200 200" fill="none" xmlns="http://www.w3.org/2000/svg">
<path d="M47.0836 141.559H46.1927C27.7527 141.559 12.749 156.562 12.749 175.002V187.271H80.5308V175.002C80.5308 156.562 65.5272 141.559 47.0836 141.559Z" fill="#383737"/>
<path d="M65.8115 116.561C65.8115 105.987 57.2115 97.3867 46.6406 97.3867C36.0697 97.3867 27.4697 105.987 27.4697 116.561C27.4697 127.136 36.0697 135.739 46.6406 135.739C57.2115 135.739 65.8115 127.136 65.8115 116.561Z" fill="#383737"/>
<path d="M101.069 176.227H111.095C112.2 176.227 113.211 176.856 113.702 177.845L117.768 186.063L133.466 176.641C133.917 176.372 134.433 176.227 134.96 176.227H187.251V123.15H101.069V176.227ZM112.88 132.056H175.44C177.048 132.056 178.349 133.361 178.349 134.965C178.349 136.572 177.048 137.874 175.44 137.874H112.88C111.273 137.874 109.971 136.572 109.971 134.965C109.971 133.361 111.273 132.056 112.88 132.056ZM112.88 146.779H175.44C177.048 146.779 178.349 148.085 178.349 149.689C178.349 151.296 177.048 152.598 175.44 152.598H112.88C111.273 152.598 109.971 151.296 109.971 149.689C109.971 148.085 111.273 146.779 112.88 146.779ZM112.88 161.503H175.44C177.048 161.503 178.349 162.805 178.349 164.412C178.349 166.019 177.048 167.321 175.44 167.321H112.88C111.273 167.321 109.971 166.019 109.971 164.412C109.971 162.805 111.273 161.503 112.88 161.503Z" fill="#383737"/>
<path d="M153.808 56.8965H152.917C134.473 56.8965 119.47 71.9001 119.47 90.3438V102.609H187.252V90.3438C187.252 71.9001 172.248 56.8965 153.808 56.8965Z" fill="#383737"/>
<path d="M153.36 51.0793C163.931 51.0793 172.531 42.4757 172.531 31.9011C172.531 21.3302 163.931 12.7266 153.36 12.7266C142.789 12.7266 134.189 21.3302 134.189 31.9011C134.189 42.4757 142.789 51.0793 153.36 51.0793Z" fill="#383737"/>
<path d="M12.749 65.8029H65.0399C65.5672 65.8029 66.0836 65.9447 66.5381 66.2175L82.2327 75.6357L86.2981 67.4211C86.789 66.4284 87.7999 65.8029 88.9054 65.8029H98.9308V12.7266H12.749V65.8029ZM24.5599 21.632H87.1199C88.7272 21.632 90.029 22.9338 90.029 24.5411C90.029 26.1484 88.7272 27.4502 87.1199 27.4502H24.5599C22.9527 27.4502 21.6508 26.1484 21.6508 24.5411C21.6508 22.9338 22.9527 21.632 24.5599 21.632ZM24.5599 36.3557H87.1199C88.7272 36.3557 90.029 37.6575 90.029 39.2647C90.029 40.872 88.7272 42.1738 87.1199 42.1738H24.5599C22.9527 42.1738 21.6508 40.872 21.6508 39.2647C21.6508 37.6575 22.9527 36.3557 24.5599 36.3557ZM24.5599 51.0793H87.1199C88.7272 51.0793 90.029 52.3811 90.029 53.9884C90.029 55.5957 88.7272 56.8975 87.1199 56.8975H24.5599C22.9527 56.8975 21.6508 55.5957 21.6508 53.9884C21.6508 52.3811 22.9527 51.0793 24.5599 51.0793Z" fill="#383737"/>
</svg>
