<svg width="15" height="15" viewBox="0 0 15 15" fill="none" xmlns="http://www.w3.org/2000/svg">
<g clip-path="url(#clip0_3676_3848)">
<path d="M0.988827 12.8086C3.15476 12.388 5.42289 12.8977 7.18758 14.2205V2.51677C5.41289 1.33677 3.2357 0.862707 1.12164 1.21583C0.898827 1.24552 0.629451 1.27489 0.625076 1.56302V12.5005C0.620701 12.6877 0.804764 12.844 0.988827 12.8086Z" fill="#ECEFF1"/>
<path d="M14.1883 1.02503C13.7417 0.435656 12.9592 0.532843 12.5433 1.10534L8.83362 5.10003C8.79768 5.13878 8.77237 5.18566 8.75956 5.23691L8.44706 6.48691C8.38518 6.70628 8.60675 6.92878 8.82612 6.86566L10.0761 6.55316C10.1349 6.53847 10.188 6.50722 10.2292 6.46284L14.1174 2.27597C14.4249 1.96659 14.4592 1.37972 14.1883 1.02503Z" fill="#ECEFF1"/>
<path d="M10.2275 7.15992L8.98 7.4718C8.66375 7.55336 8.3175 7.45898 8.0875 7.22648C7.85594 6.99523 7.76125 6.6543 7.84031 6.33586L8.15281 5.08586C8.19094 4.93336 8.2675 4.79148 8.37531 4.67523L11.6447 1.1543C10.2769 1.29273 8.95906 1.76117 7.8125 2.52398V14.2209C9.51375 12.9496 11.6772 12.4205 13.7759 12.7699L14.0112 12.809C14.1941 12.8424 14.3803 12.6887 14.375 12.5005V2.91711L10.6866 6.88898C10.5625 7.02242 10.4038 7.11586 10.2275 7.15992Z" fill="#ECEFF1"/>
</g>
<defs>
<clipPath id="clip0_3676_3848">
<rect width="15" height="15" fill="white"/>
</clipPath>
</defs>
</svg>
