<svg width="342" height="28" viewBox="0 0 342 28" fill="none" xmlns="http://www.w3.org/2000/svg">
<path d="M23.4854 26.2512H17.0104L9.41543 15.8212L6.58043 18.7612V26.2512H1.19043V1.75117H6.58043V12.4612L16.5204 1.75117H23.0304L13.0554 12.1462L23.4854 26.2512ZM44.3873 17.3962C44.3873 17.9212 44.3523 18.2362 44.3173 18.7262H31.2623C31.7873 21.1412 33.4673 22.4012 35.8473 22.4012C37.6323 22.4012 38.9273 21.8412 40.3973 20.4762L43.4423 23.1712C41.6923 25.3412 39.1723 26.6712 35.7773 26.6712C30.1423 26.6712 25.9773 22.7162 25.9773 16.9762V16.9062C25.9773 11.5512 29.7923 7.14117 35.2523 7.14117C41.5173 7.14117 44.3873 12.0062 44.3873 17.3262V17.3962ZM39.2073 15.4012C38.8923 13.0212 37.4923 11.4112 35.2523 11.4112C33.0473 11.4112 31.6123 12.9862 31.1923 15.4012H39.2073ZM67.2871 26.2512H61.9671V15.7862C61.9671 13.2662 60.7771 11.9712 58.7471 11.9712C56.7171 11.9712 55.4221 13.2662 55.4221 15.7862V26.2512H50.1021V7.49117H55.4221V10.1512C56.6471 8.57617 58.2221 7.14117 60.9171 7.14117C64.9421 7.14117 67.2871 9.80117 67.2871 14.1062V26.2512ZM87.4138 20.5462C87.4138 24.7112 84.2988 26.6012 80.2388 26.6012C77.6138 26.6012 74.6738 25.7262 72.1888 23.7662L74.4638 20.2662C76.4938 21.7362 78.6288 22.5062 80.3788 22.5062C81.9188 22.5062 82.6188 21.9462 82.6188 21.1062V21.0362C82.6188 19.8812 80.7988 19.4962 78.7338 18.8662C76.1088 18.0962 73.1338 16.8712 73.1338 13.2312V13.1612C73.1338 9.34617 76.2138 7.21117 79.9938 7.21117C82.3738 7.21117 84.9638 8.01617 86.9938 9.38117L84.9638 13.0562C83.1088 11.9712 81.2538 11.3062 79.8888 11.3062C78.5938 11.3062 77.9288 11.8662 77.9288 12.6012V12.6712C77.9288 13.7212 79.7138 14.2112 81.7438 14.9112C84.3688 15.7862 87.4138 17.0462 87.4138 20.4762V20.5462ZM110.162 26.2512H104.842V15.7862C104.842 13.2662 103.652 11.9712 101.622 11.9712C99.5921 11.9712 98.2971 13.2662 98.2971 15.7862V26.2512H92.9771V0.701172H98.2971V10.1512C99.522 8.57617 101.097 7.14117 103.792 7.14117C107.817 7.14117 110.162 9.80117 110.162 14.1062V26.2512ZM122.239 5.42617H116.639V0.701172H122.239V5.42617ZM122.099 26.2512H116.779V7.49117H122.099V26.2512ZM146.03 26.2512H140.71V15.7862C140.71 13.2662 139.52 11.9712 137.49 11.9712C135.46 11.9712 134.165 13.2662 134.165 15.7862V26.2512H128.845V7.49117H134.165V10.1512C135.39 8.57617 136.965 7.14117 139.66 7.14117C143.685 7.14117 146.03 9.80117 146.03 14.1062V26.2512ZM171.512 6.72117H164.057V26.2512H158.667V6.72117H151.212V1.75117H171.512V6.72117ZM190.656 17.3962C190.656 17.9212 190.621 18.2362 190.586 18.7262H177.531C178.056 21.1412 179.736 22.4012 182.116 22.4012C183.901 22.4012 185.196 21.8412 186.666 20.4762L189.711 23.1712C187.961 25.3412 185.441 26.6712 182.046 26.6712C176.411 26.6712 172.246 22.7162 172.246 16.9762V16.9062C172.246 11.5512 176.061 7.14117 181.521 7.14117C187.786 7.14117 190.656 12.0062 190.656 17.3262V17.3962ZM185.476 15.4012C185.161 13.0212 183.761 11.4112 181.521 11.4112C179.316 11.4112 177.881 12.9862 177.461 15.4012H185.476ZM207.676 12.7062H207.396C203.861 12.7062 201.691 14.8412 201.691 19.3212V26.2512H196.371V7.49117H201.691V11.2712C202.776 8.68117 204.526 7.00117 207.676 7.14117V12.7062ZM227.996 26.2512H222.851V24.2212C221.556 25.6562 219.771 26.6012 217.181 26.6012C213.646 26.6012 210.741 24.5712 210.741 20.8612V20.7912C210.741 16.6962 213.856 14.8062 218.301 14.8062C220.191 14.8062 221.556 15.1212 222.886 15.5762V15.2612C222.886 13.0562 221.521 11.8312 218.861 11.8312C216.831 11.8312 215.396 12.2162 213.681 12.8462L212.351 8.78617C214.416 7.87617 216.446 7.28117 219.631 7.28117C225.441 7.28117 227.996 10.2912 227.996 15.3662V26.2512ZM222.956 19.6362V18.6912C222.046 18.2712 220.856 17.9912 219.561 17.9912C217.286 17.9912 215.886 18.9012 215.886 20.5812V20.6512C215.886 22.0862 217.076 22.9262 218.791 22.9262C221.276 22.9262 222.956 21.5612 222.956 19.6362ZM248.079 20.5462C248.079 24.7112 244.964 26.6012 240.904 26.6012C238.279 26.6012 235.339 25.7262 232.854 23.7662L235.129 20.2662C237.159 21.7362 239.294 22.5062 241.044 22.5062C242.584 22.5062 243.284 21.9462 243.284 21.1062V21.0362C243.284 19.8812 241.464 19.4962 239.399 18.8662C236.774 18.0962 233.799 16.8712 233.799 13.2312V13.1612C233.799 9.34617 236.879 7.21117 240.659 7.21117C243.039 7.21117 245.629 8.01617 247.659 9.38117L245.629 13.0562C243.774 11.9712 241.919 11.3062 240.554 11.3062C239.259 11.3062 238.594 11.8662 238.594 12.6012V12.6712C238.594 13.7212 240.379 14.2112 242.409 14.9112C245.034 15.7862 248.079 17.0462 248.079 20.4762V20.5462ZM270.827 26.2512H265.507V15.7862C265.507 13.2662 264.317 11.9712 262.287 11.9712C260.257 11.9712 258.962 13.2662 258.962 15.7862V26.2512H253.642V0.701172H258.962V10.1512C260.187 8.57617 261.762 7.14117 264.457 7.14117C268.482 7.14117 270.827 9.80117 270.827 14.1062V26.2512ZM282.904 5.42617H277.304V0.701172H282.904V5.42617ZM282.764 26.2512H277.444V7.49117H282.764V26.2512ZM318.14 26.2512H312.82V15.7862C312.82 13.2662 311.7 11.9712 309.705 11.9712C307.71 11.9712 306.485 13.2662 306.485 15.7862V26.2512H301.165V15.7862C301.165 13.2662 300.045 11.9712 298.05 11.9712C296.055 11.9712 294.83 13.2662 294.83 15.7862V26.2512H289.51V7.49117H294.83V10.1512C296.055 8.57617 297.665 7.14117 300.36 7.14117C302.81 7.14117 304.665 8.22617 305.645 10.1162C307.29 8.19117 309.25 7.14117 311.805 7.14117C315.76 7.14117 318.14 9.52117 318.14 14.0362V26.2512ZM340.652 26.2512H335.507V24.2212C334.212 25.6562 332.427 26.6012 329.837 26.6012C326.302 26.6012 323.397 24.5712 323.397 20.8612V20.7912C323.397 16.6962 326.512 14.8062 330.957 14.8062C332.847 14.8062 334.212 15.1212 335.542 15.5762V15.2612C335.542 13.0562 334.177 11.8312 331.517 11.8312C329.487 11.8312 328.052 12.2162 326.337 12.8462L325.007 8.78617C327.072 7.87617 329.102 7.28117 332.287 7.28117C338.097 7.28117 340.652 10.2912 340.652 15.3662V26.2512ZM335.612 19.6362V18.6912C334.702 18.2712 333.512 17.9912 332.217 17.9912C329.942 17.9912 328.542 18.9012 328.542 20.5812V20.6512C328.542 22.0862 329.732 22.9262 331.447 22.9262C333.932 22.9262 335.612 21.5612 335.612 19.6362Z" fill="white"/>
</svg>
