<svg width="200" height="200" viewBox="0 0 200 200" fill="none" xmlns="http://www.w3.org/2000/svg">
<path d="M167.676 62.207H137.793V32.3242C137.793 25.5387 132.272 20.0195 125.488 20.0195H32.3242C25.5387 20.0195 20.0195 25.5387 20.0195 32.3242V125.488C20.0195 132.272 25.5387 137.793 32.3242 137.793H62.207V167.676C62.207 174.46 67.7262 179.98 74.5117 179.98H167.676C174.46 179.98 179.98 174.46 179.98 167.676V74.5117C179.98 67.7277 174.46 62.207 167.676 62.207ZM123.73 114.062C123.73 119.394 119.394 123.73 114.062 123.73H85.9375C80.6063 123.73 76.2695 119.394 76.2695 114.062V85.9375C76.2695 80.6063 80.6063 76.2695 85.9375 76.2695H114.062C119.394 76.2695 123.73 80.6063 123.73 85.9375V114.062Z" fill="#383737"/>
</svg>
