<svg width="265" height="22" viewBox="0 0 265 22" fill="none" xmlns="http://www.w3.org/2000/svg">
<g clip-path="url(#clip0_3601_3960)">
<path d="M18.2372 20.5129H13.209L7.31101 12.4134L5.10947 14.6965V20.5129H0.923828V1.48726H5.10947V9.80418L12.8284 1.48726H17.8838L10.1377 9.55957L18.2372 20.5129ZM34.4686 13.6365C34.4686 14.0442 34.4414 14.2888 34.4143 14.6693H24.2763C24.684 16.5447 25.9886 17.5232 27.8368 17.5232C29.223 17.5232 30.2286 17.0883 31.3702 16.0283L33.7348 18.1211C32.3758 19.8062 30.4189 20.8391 27.7825 20.8391C23.4066 20.8391 20.1722 17.7678 20.1722 13.3103V13.256C20.1722 9.09752 23.1348 5.6729 27.3748 5.6729C32.2399 5.6729 34.4686 9.45085 34.4686 13.5821V13.6365ZM30.4461 12.0873C30.2014 10.2391 29.1143 8.9888 27.3748 8.9888C25.6625 8.9888 24.5481 10.2119 24.2219 12.0873H30.4461ZM52.2516 20.5129H48.1203V12.3862C48.1203 10.4293 47.1962 9.42367 45.6198 9.42367C44.0434 9.42367 43.0378 10.4293 43.0378 12.3862V20.5129H38.9065V5.9447H43.0378V8.01034C43.989 6.78726 45.2121 5.6729 47.3049 5.6729C50.4306 5.6729 52.2516 7.73854 52.2516 11.0816V20.5129ZM67.8812 16.0826C67.8812 19.317 65.4622 20.7847 62.3094 20.7847C60.2709 20.7847 57.9878 20.1052 56.0581 18.5832L57.8248 15.8652C59.4012 17.0067 61.0591 17.6047 62.4181 17.6047C63.614 17.6047 64.1576 17.1698 64.1576 16.5175V16.4632C64.1576 15.5662 62.7443 15.2673 61.1407 14.778C59.1022 14.1801 56.7919 13.2288 56.7919 10.4021V10.3478C56.7919 7.38521 59.1837 5.72726 62.1191 5.72726C63.9673 5.72726 65.9786 6.35239 67.555 7.41239L65.9786 10.2662C64.5381 9.42367 63.0976 8.90726 62.0376 8.90726C61.0319 8.90726 60.5155 9.34213 60.5155 9.9129V9.96726C60.5155 10.7826 61.9017 11.1632 63.4781 11.7067C65.5166 12.3862 67.8812 13.3647 67.8812 16.0283V16.0826ZM85.5465 20.5129H81.4152V12.3862C81.4152 10.4293 80.4911 9.42367 78.9147 9.42367C77.3383 9.42367 76.3326 10.4293 76.3326 12.3862V20.5129H72.2014V0.671875H76.3326V8.01034C77.2839 6.78726 78.507 5.6729 80.5998 5.6729C83.7255 5.6729 85.5465 7.73854 85.5465 11.0816V20.5129ZM94.9248 4.34111H90.576V0.671875H94.9248V4.34111ZM94.816 20.5129H90.6848V5.9447H94.816V20.5129ZM113.4 20.5129H109.269V12.3862C109.269 10.4293 108.345 9.42367 106.768 9.42367C105.192 9.42367 104.186 10.4293 104.186 12.3862V20.5129H100.055V5.9447H104.186V8.01034C105.138 6.78726 106.361 5.6729 108.453 5.6729C111.579 5.6729 113.4 7.73854 113.4 11.0816V20.5129ZM133.188 5.34675H127.399V20.5129H123.213V5.34675H117.424V1.48726H133.188V5.34675ZM148.055 13.6365C148.055 14.0442 148.027 14.2888 148 14.6693H137.862C138.27 16.5447 139.575 17.5232 141.423 17.5232C142.809 17.5232 143.815 17.0883 144.956 16.0283L147.321 18.1211C145.962 19.8062 144.005 20.8391 141.368 20.8391C136.992 20.8391 133.758 17.7678 133.758 13.3103V13.256C133.758 9.09752 136.721 5.6729 140.961 5.6729C145.826 5.6729 148.055 9.45085 148.055 13.5821V13.6365ZM144.032 12.0873C143.787 10.2391 142.7 8.9888 140.961 8.9888C139.248 8.9888 138.134 10.2119 137.808 12.0873H144.032ZM161.272 9.99444H161.054C158.309 9.99444 156.624 11.6524 156.624 15.1314V20.5129H152.493V5.9447H156.624V8.88008C157.467 6.8688 158.826 5.56418 161.272 5.6729V9.99444ZM177.051 20.5129H173.056V18.9365C172.05 20.0508 170.664 20.7847 168.653 20.7847C165.907 20.7847 163.651 19.2083 163.651 16.3273V16.2729C163.651 13.0929 166.07 11.6252 169.522 11.6252C170.99 11.6252 172.05 11.8698 173.083 12.2232V11.9785C173.083 10.2662 172.023 9.31495 169.957 9.31495C168.381 9.31495 167.266 9.61393 165.935 10.1032L164.902 6.95034C166.505 6.24367 168.082 5.78162 170.555 5.78162C175.067 5.78162 177.051 8.11905 177.051 12.0601V20.5129ZM173.137 15.376V14.6421C172.43 14.316 171.506 14.0985 170.501 14.0985C168.734 14.0985 167.647 14.8052 167.647 16.1098V16.1642C167.647 17.2785 168.571 17.9309 169.903 17.9309C171.833 17.9309 173.137 16.8709 173.137 15.376ZM192.647 16.0826C192.647 19.317 190.228 20.7847 187.075 20.7847C185.036 20.7847 182.753 20.1052 180.824 18.5832L182.59 15.8652C184.167 17.0067 185.825 17.6047 187.183 17.6047C188.379 17.6047 188.923 17.1698 188.923 16.5175V16.4632C188.923 15.5662 187.51 15.2673 185.906 14.778C183.868 14.1801 181.557 13.2288 181.557 10.4021V10.3478C181.557 7.38521 183.949 5.72726 186.885 5.72726C188.733 5.72726 190.744 6.35239 192.32 7.41239L190.744 10.2662C189.303 9.42367 187.863 8.90726 186.803 8.90726C185.797 8.90726 185.281 9.34213 185.281 9.9129V9.96726C185.281 10.7826 186.667 11.1632 188.243 11.7067C190.282 12.3862 192.647 13.3647 192.647 16.0283V16.0826ZM210.312 20.5129H206.181V12.3862C206.181 10.4293 205.257 9.42367 203.68 9.42367C202.104 9.42367 201.098 10.4293 201.098 12.3862V20.5129H196.967V0.671875H201.098V8.01034C202.049 6.78726 203.272 5.6729 205.365 5.6729C208.491 5.6729 210.312 7.73854 210.312 11.0816V20.5129ZM219.69 4.34111H215.341V0.671875H219.69V4.34111ZM219.581 20.5129H215.45V5.9447H219.581V20.5129ZM247.053 20.5129H242.922V12.3862C242.922 10.4293 242.052 9.42367 240.503 9.42367C238.954 9.42367 238.002 10.4293 238.002 12.3862V20.5129H233.871V12.3862C233.871 10.4293 233.001 9.42367 231.452 9.42367C229.903 9.42367 228.952 10.4293 228.952 12.3862V20.5129H224.82V5.9447H228.952V8.01034C229.903 6.78726 231.153 5.6729 233.246 5.6729C235.149 5.6729 236.589 6.51546 237.35 7.98316C238.627 6.48829 240.15 5.6729 242.134 5.6729C245.205 5.6729 247.053 7.52111 247.053 11.0273V20.5129ZM264.535 20.5129H260.54V18.9365C259.534 20.0508 258.148 20.7847 256.136 20.7847C253.391 20.7847 251.135 19.2083 251.135 16.3273V16.2729C251.135 13.0929 253.554 11.6252 257.006 11.6252C258.474 11.6252 259.534 11.8698 260.567 12.2232V11.9785C260.567 10.2662 259.507 9.31495 257.441 9.31495C255.865 9.31495 254.75 9.61393 253.419 10.1032L252.386 6.95034C253.989 6.24367 255.566 5.78162 258.039 5.78162C262.551 5.78162 264.535 8.11905 264.535 12.0601V20.5129ZM260.621 15.376V14.6421C259.914 14.316 258.99 14.0985 257.985 14.0985C256.218 14.0985 255.131 14.8052 255.131 16.1098V16.1642C255.131 17.2785 256.055 17.9309 257.387 17.9309C259.316 17.9309 260.621 16.8709 260.621 15.376Z" fill="black"/>
</g>
<defs>
<clipPath id="clip0_3601_3960">
<rect width="265" height="21.7436" fill="white" transform="translate(0 0.128906)"/>
</clipPath>
</defs>
</svg>
