<svg width="211" height="211" viewBox="0 0 211 211" fill="none" xmlns="http://www.w3.org/2000/svg">
<path d="M204.132 210.638H6.51339C2.91024 210.638 0 204.894 0 197.781V178.358C0 171.245 2.91024 165.5 6.51339 165.5H204.132C207.736 165.5 210.646 171.245 210.646 178.358V197.781C210.646 204.894 207.736 210.638 204.132 210.638Z" fill="#ECEFF1"/>
<path d="M194.165 0H16.342C7.34006 0 0 7.73467 0 17.2206V133.241C0 142.727 7.34006 150.461 16.342 150.461H194.304C203.306 150.461 210.646 142.727 210.646 133.241V17.2206C210.507 7.73467 203.167 0 194.165 0ZM72.9851 89.3136L87.5267 104.637C90.435 107.702 90.2965 112.08 87.5267 114.999C84.7569 117.771 80.6021 117.625 77.6938 114.707C67.3069 103.761 57.0586 92.962 46.6717 82.0167C43.6249 78.8061 43.4864 74.282 46.6717 70.9255L77.8323 38.0896C80.6021 35.1709 84.8954 35.1709 87.5267 37.9437C90.2965 40.8624 90.435 45.2405 87.6652 48.1593C81.8486 54.4346 76.0319 60.418 70.2153 66.6933C67.1684 69.9039 64.1216 73.2605 60.9363 76.617C64.9526 80.9952 68.9688 85.2273 72.9851 89.3136ZM117.164 47.1377C115.502 58.083 113.702 69.0283 112.04 79.9736C110.101 92.2323 108.162 104.637 106.223 116.896C105.531 121.42 101.653 124.484 97.6366 123.755C93.4819 123.025 90.8505 119.085 91.543 114.415C94.1743 97.4861 96.8057 80.5573 99.437 63.6286C100.96 53.7049 102.484 43.9271 104.007 34.0034C104.838 28.6037 108.854 25.539 113.563 26.8525C116.887 27.874 119.103 30.9387 118.964 35.3168C118.41 38.8193 117.856 43.0515 117.164 47.1377ZM163.697 80.8492C153.726 91.3567 143.616 102.01 133.644 112.518C132.26 113.977 130.736 115.436 128.659 115.582C125.612 115.874 122.981 114.415 121.734 111.642C120.349 108.723 120.903 105.659 123.119 103.178C126.166 99.8211 129.213 96.6104 132.398 93.3998L148.879 76.0333C149.155 75.7414 149.432 75.3036 149.986 74.8658C147.632 72.3849 145.278 70.0499 142.923 67.5689C136.276 60.5639 129.767 53.7049 123.258 46.6999C119.657 42.7596 120.903 36.6302 125.75 34.879C128.52 33.8574 131.013 34.5871 133.229 36.7762C137.661 41.4462 142.231 46.2621 146.663 50.9321C152.479 57.0615 158.296 63.1908 164.113 69.3202C167.021 72.9686 166.882 77.4927 163.697 80.8492Z" fill="#ECEFF1"/>
</svg>
