<svg width="200" height="200" viewBox="0 0 200 200" fill="none" xmlns="http://www.w3.org/2000/svg">
<path d="M194.141 105.859H5.85938C2.6207 105.859 0 108.48 0 111.719C0 114.957 2.6207 117.578 5.85938 117.578H89.6508L59.8195 167.297C57.4773 171.205 60.2973 176.172 64.8438 176.172H135.156C139.695 176.172 142.527 171.212 140.18 167.297L110.349 117.578H194.141C197.379 117.578 200 114.957 200 111.719C200 108.48 197.379 105.859 194.141 105.859Z" fill="#383737"/>
<path d="M35.1562 94.1406C54.5725 94.1406 70.3125 78.4006 70.3125 58.9844C70.3125 39.5681 54.5725 23.8281 35.1562 23.8281C15.74 23.8281 0 39.5681 0 58.9844C0 78.4006 15.74 94.1406 35.1562 94.1406Z" fill="#383737"/>
<path d="M164.844 94.1406C184.26 94.1406 200 78.4006 200 58.9844C200 39.5681 184.26 23.8281 164.844 23.8281C145.427 23.8281 129.688 39.5681 129.688 58.9844C129.688 78.4006 145.427 94.1406 164.844 94.1406Z" fill="#383737"/>
</svg>
