<svg width="200" height="200" viewBox="0 0 200 200" fill="none" xmlns="http://www.w3.org/2000/svg">
<path d="M174.513 52.9629H65.9531V187.5H174.513V52.9629ZM104.897 143.538L93.1281 155.307C92.5188 155.916 91.7188 156.222 90.9188 156.222C90.1188 156.222 89.3187 155.916 88.7094 155.307L81.8438 148.441C80.6219 147.222 80.6219 145.244 81.8438 144.022C83.0656 142.8 85.0406 142.8 86.2625 144.022L90.9188 148.679L100.478 139.119C101.7 137.897 103.675 137.897 104.897 139.119C106.119 140.341 106.119 142.316 104.897 143.538ZM104.897 116.557L93.1281 128.329C92.5406 128.916 91.7469 129.244 90.9188 129.244C90.0906 129.244 89.2937 128.916 88.7094 128.329L81.8438 121.463C80.6219 120.241 80.6219 118.266 81.8438 117.044C83.0656 115.822 85.0406 115.822 86.2625 117.044L90.9188 121.7L100.478 112.138C101.7 110.916 103.675 110.916 104.897 112.138C106.119 113.36 106.119 115.335 104.897 116.557ZM104.897 89.5754L93.1281 101.347C92.5406 101.935 91.7469 102.263 90.9188 102.263C90.0906 102.263 89.2937 101.935 88.7094 101.347L81.8438 94.4816C80.6219 93.2598 80.6219 91.2848 81.8438 90.0629C83.0656 88.841 85.0406 88.841 86.2625 90.0629L90.9188 94.7191L100.478 85.1566C101.7 83.9348 103.675 83.9348 104.897 85.1566C106.119 86.3785 106.119 88.3535 104.897 89.5754ZM156.416 150.338H114.566C112.841 150.338 111.441 148.938 111.441 147.213C111.441 145.488 112.841 144.088 114.566 144.088H156.416C158.141 144.088 159.541 145.488 159.541 147.213C159.541 148.938 158.141 150.338 156.416 150.338ZM156.416 123.357H114.566C112.841 123.357 111.441 121.957 111.441 120.232C111.441 118.507 112.841 117.107 114.566 117.107H156.416C158.141 117.107 159.541 118.507 159.541 120.232C159.541 121.957 158.141 123.357 156.416 123.357ZM156.416 96.3754H114.566C112.841 96.3754 111.441 94.9754 111.441 93.2504C111.441 91.5254 112.841 90.1254 114.566 90.1254H156.416C158.141 90.1254 159.541 91.5254 159.541 93.2504C159.541 94.9754 158.141 96.3754 156.416 96.3754Z" fill="#383737"/>
<path d="M25.4873 147.037H39.4842V29.6187C39.4842 27.8937 40.8842 26.4937 42.6092 26.4937H134.053V12.5H25.4873V147.037Z" fill="#383737"/>
<path d="M45.7314 167.282H59.7033V49.8379C59.7033 48.1129 61.1033 46.7129 62.8283 46.7129H154.297V32.7441H45.7314V167.282Z" fill="#383737"/>
</svg>
