<svg width="200" height="200" viewBox="0 0 200 200" fill="none" xmlns="http://www.w3.org/2000/svg">
<path fill-rule="evenodd" clip-rule="evenodd" d="M42.0352 75.4102C38.1563 83.7695 35.9688 93.0547 35.9688 102.832C35.9688 141.93 64.1328 135.027 66.4336 193.746H134.66L132.168 170.145C131.535 164.152 135.754 158.91 141.73 159.687C171.723 163.586 151.613 132.359 158.531 131.133C161.434 130.617 174.852 133.609 174.266 127.801C172.656 111.863 158.625 107.801 159.73 104.379C165.707 85.8906 158.891 67.6289 145.824 54.6914C141.125 61.7266 133.113 66.3594 124.016 66.3594L123.852 66.3555C122.926 76.6484 118.242 86.2344 110.598 93.3359C107.812 95.9219 106.438 99.0742 106.438 102.879V116.008C106.438 121.164 103.246 125.594 98.7344 127.434C98.6055 134.938 92.4453 141.02 84.9141 141.02H79.1406C71.6094 141.02 65.4492 134.938 65.3203 127.434C60.8125 125.598 57.6172 121.164 57.6172 116.008V102.879C57.6172 99.0781 56.2422 95.9258 53.457 93.3359C48.1094 88.375 44.2148 82.1992 42.0352 75.4102ZM124.02 18.5742C135.937 18.5742 145.602 28.2344 145.602 40.1563C145.602 52.0781 135.941 61.7344 124.02 61.7344C112.102 61.7344 102.441 52.0742 102.441 40.1563C102.441 28.2383 112.102 18.5742 124.02 18.5742ZM134.555 30.9219L121 44.4766L113.484 36.9609C112.582 36.0586 111.113 36.0586 110.211 36.9609C109.309 37.8633 109.309 39.332 110.211 40.2344L119.363 49.3867C120.266 50.2891 121.734 50.2891 122.637 49.3867L137.828 34.1953C138.73 33.293 138.73 31.8242 137.828 30.9219C136.926 30.0195 135.457 30.0195 134.555 30.9219ZM34.2383 60.25C35.5156 60.25 36.5547 61.2852 36.5547 62.5664C36.5547 63.8477 35.5195 64.8828 34.2383 64.8828H28.0273C26.75 64.8828 25.7109 63.8477 25.7109 62.5664C25.7109 61.2852 26.7461 60.25 28.0273 60.25H34.2383ZM49.8711 27.1367C50.7734 28.0391 50.7734 29.5078 49.8711 30.4102C48.9687 31.3125 47.5 31.3125 46.5977 30.4102L42.207 26.0156C41.3047 25.1133 41.3047 23.6445 42.207 22.7422C43.1094 21.8398 44.5781 21.8398 45.4805 22.7422L49.8711 27.1367ZM84.3438 14.7773C84.3438 16.0547 83.3086 17.0937 82.0273 17.0937C80.75 17.0937 79.7109 16.0586 79.7109 14.7773V8.56641C79.7109 7.28906 80.7461 6.25 82.0273 6.25C83.3047 6.25 84.3438 7.28516 84.3438 8.56641V14.7773ZM82.0273 25.1953C88.5234 25.1953 94.6289 26.8555 99.9492 29.7695C98.5742 32.9531 97.8086 36.4648 97.8086 40.1563C97.8086 53 107.051 63.6836 119.246 65.9297C118.402 75.3945 114.027 83.8438 107.449 89.9492C104.297 92.875 102.445 96.457 101.945 100.566H62.1094C61.6094 96.457 59.7578 92.875 56.6055 89.9492C49.2578 83.125 44.6602 73.3828 44.6602 62.5625C44.6602 41.9258 61.3906 25.1953 82.0273 25.1953ZM101.809 105.199V111.805H62.2461V105.199H101.809ZM101.797 116.434C101.574 120.473 98.2031 123.711 94.1094 123.711H69.9414C65.8477 123.711 62.4766 120.473 62.2539 116.434H101.797ZM82.0273 38.457C83.3047 38.457 84.3438 39.4922 84.3438 40.7734C84.3438 42.0547 83.3086 43.0898 82.0273 43.0898C71.2656 43.0898 62.5508 51.8047 62.5508 62.5664C62.5508 63.8437 61.5156 64.8828 60.2344 64.8828C58.957 64.8828 57.918 63.8477 57.918 62.5664C57.9219 49.2461 68.707 38.457 82.0273 38.457ZM94.0391 128.34C93.4727 132.863 89.5859 136.391 84.9141 136.391H79.1406C74.4687 136.391 70.582 132.863 70.0156 128.34H94.0391Z" fill="#383737"/>
</svg>
