<svg width="200" height="200" viewBox="0 0 200 200" fill="none" xmlns="http://www.w3.org/2000/svg">
<g clip-path="url(#clip0_3753_3897)">
<path d="M35.2952 152.942C46.6658 152.942 55.8834 143.724 55.8834 132.354C55.8834 120.983 46.6658 111.766 35.2952 111.766C23.9247 111.766 14.707 120.983 14.707 132.354C14.707 143.724 23.9247 152.942 35.2952 152.942Z" fill="#383737"/>
<path d="M164.706 152.942C176.077 152.942 185.295 143.724 185.295 132.354C185.295 120.983 176.077 111.766 164.706 111.766C153.336 111.766 144.118 120.983 144.118 132.354C144.118 143.724 153.336 152.942 164.706 152.942Z" fill="#383737"/>
<path d="M187.424 155.365C181.577 161.138 173.549 164.706 164.706 164.706C155.863 164.706 147.835 161.138 141.988 155.365C140.27 156.812 138.693 158.422 137.277 160.168L105.882 132.629V105.883H117.647V82.3535H82.3528V105.883H94.1175V132.629L62.7226 160.168C61.3073 158.422 59.7301 156.813 58.0117 155.365C52.1646 161.138 44.1372 164.706 35.294 164.706C26.4509 164.706 18.4235 161.138 12.5764 155.365C4.89019 161.84 0 171.538 0 182.353V200H70.5881V182.353C70.5881 178.258 69.8861 174.324 68.5979 170.664L99.9998 143.119L131.402 170.664C130.114 174.324 129.412 178.258 129.412 182.353V200H200V182.353C200 171.538 195.11 161.84 187.424 155.365Z" fill="#383737"/>
<path d="M78.0905 62.963C80.3972 64.7912 81.898 67.5704 82.2643 70.5885H117.736C118.098 67.5512 119.603 64.803 121.993 62.8979C130.539 56.083 135.387 45.9105 135.294 34.9874C135.132 16.0239 119.813 0.45528 100.846 0.010183C81.0247 -0.460404 64.707 15.4392 64.707 35.2944C64.7066 46.1368 69.5847 56.2218 78.0905 62.963Z" fill="#383737"/>
<path d="M143.789 12.707L161.435 0.936053L167.964 10.7243L150.318 22.4952L143.789 12.707Z" fill="#383737"/>
<path d="M32.043 10.7793L38.5724 0.991081L56.2182 12.7621L49.6888 22.5503L32.043 10.7793Z" fill="#383737"/>
<path d="M143.839 51.9746L150.368 42.1864L168.014 53.9574L161.485 63.7456L143.839 51.9746Z" fill="#383737"/>
<path d="M32.0439 53.916L49.6898 42.145L56.2192 51.9333L38.5733 63.7042L32.0439 53.916Z" fill="#383737"/>
</g>
<defs>
<clipPath id="clip0_3753_3897">
<rect width="200" height="200" fill="white"/>
</clipPath>
</defs>
</svg>
