<svg width="200" height="200" viewBox="0 0 200 200" fill="none" xmlns="http://www.w3.org/2000/svg">
<g clip-path="url(#clip0_3753_3861)">
<path d="M100 118.75C106.904 118.75 112.5 113.154 112.5 106.25C112.5 99.3464 106.904 93.75 100 93.75C93.0964 93.75 87.5 99.3464 87.5 106.25C87.5 113.154 93.0964 118.75 100 118.75Z" fill="#383737"/>
<path d="M100 84.3751C93.9418 84.3622 87.9879 85.9541 82.7443 88.9888C77.5007 92.0236 73.1543 96.393 70.1473 101.653C67.1404 106.912 65.58 112.874 65.625 118.933C65.6699 124.991 67.3186 130.929 70.4034 136.144C79.383 130.893 89.598 128.125 100 128.125C110.403 128.125 120.617 130.893 129.597 136.144C132.682 130.929 134.331 124.991 134.376 118.933C134.42 112.874 132.86 106.912 129.853 101.653C126.846 96.393 122.5 92.0236 117.256 88.9888C112.013 85.9541 106.059 84.3622 100 84.3751ZM100 125C96.2918 125 92.6667 123.9 89.5833 121.84C86.4999 119.78 84.0966 116.852 82.6775 113.425C81.2584 109.999 80.887 106.229 81.6105 102.592C82.334 98.955 84.1198 95.6141 86.742 92.9918C89.3642 90.3696 92.7052 88.5838 96.3423 87.8604C99.9794 87.1369 103.749 87.5082 107.176 88.9273C110.602 90.3465 113.53 92.7497 115.59 95.8331C117.651 98.9166 118.75 102.542 118.75 106.25C118.745 111.221 116.768 115.988 113.253 119.503C109.738 123.018 104.972 124.995 100 125Z" fill="#383737"/>
<path d="M74.0625 141.224C77.2772 144.958 81.2598 147.954 85.7382 150.008C90.2167 152.061 95.0856 153.125 100.013 153.125C104.939 153.125 109.808 152.061 114.287 150.008C118.765 147.954 122.748 144.958 125.962 141.224C118.027 136.807 109.095 134.488 100.013 134.488C90.9302 134.488 81.9982 136.807 74.0625 141.224Z" fill="#383737"/>
<path d="M199.525 117.093C188.257 101.182 173.339 88.2034 156.021 79.2465C138.703 70.2896 119.491 65.6152 99.9936 65.6152C80.4965 65.6152 61.2836 70.2896 43.9658 79.2465C26.6479 88.2034 11.7298 101.182 0.462312 117.093C0.151897 117.59 -0.0126953 118.164 -0.0126953 118.75C-0.0126953 119.335 0.151897 119.909 0.462312 120.406C11.7298 136.317 26.6479 149.296 43.9658 158.253C61.2836 167.209 80.4965 171.884 99.9936 171.884C119.491 171.884 138.703 167.209 156.021 158.253C173.339 149.296 188.257 136.317 199.525 120.406C199.835 119.909 200 119.335 200 118.75C200 118.164 199.835 117.59 199.525 117.093ZM99.9998 159.375C91.9649 159.375 84.1105 156.992 77.4298 152.528C70.749 148.064 65.542 141.719 62.4672 134.296C59.3924 126.873 58.5879 118.704 60.1554 110.824C61.7229 102.943 65.5921 95.7048 71.2736 90.0233C76.9551 84.3418 84.1938 80.4726 92.0743 78.9051C99.9547 77.3376 108.123 78.1421 115.546 81.2169C122.97 84.2917 129.314 89.4987 133.778 96.1795C138.242 102.86 140.625 110.715 140.625 118.75C140.59 129.513 136.299 139.826 128.688 147.437C121.077 155.049 110.764 159.34 99.9998 159.375Z" fill="#383737"/>
<path d="M100 59.375C100.829 59.375 101.624 59.0458 102.21 58.4597C102.796 57.8737 103.125 57.0788 103.125 56.25V31.25C103.125 30.4212 102.796 29.6263 102.21 29.0403C101.624 28.4542 100.829 28.125 100 28.125C99.1712 28.125 98.3763 28.4542 97.7903 29.0403C97.2042 29.6263 96.875 30.4212 96.875 31.25V56.25C96.875 57.0788 97.2042 57.8737 97.7903 58.4597C98.3763 59.0458 99.1712 59.375 100 59.375Z" fill="#383737"/>
<path d="M53.8093 64.4541C54.3273 65.1013 55.0812 65.5164 55.9052 65.6078C56.7292 65.6992 57.5558 65.4596 58.2031 64.9416C58.8504 64.4236 59.2654 63.6696 59.3568 62.8456C59.4482 62.0217 59.2086 61.1951 58.6906 60.5478L46.1906 44.9228C45.6726 44.2755 44.9187 43.8605 44.0947 43.7691C43.2707 43.6777 42.4441 43.9173 41.7968 44.4353C41.1495 44.9533 40.7345 45.7072 40.6431 46.5312C40.5517 47.3552 40.7913 48.1818 41.3093 48.8291L53.8093 64.4541Z" fill="#383737"/>
<path d="M146.191 64.4541L158.691 48.8291C159.209 48.1818 159.448 47.3552 159.357 46.5312C159.265 45.7072 158.85 44.9533 158.203 44.4353C157.556 43.9173 156.729 43.6777 155.905 43.7691C155.081 43.8605 154.327 44.2755 153.809 44.9228L141.309 60.5478C140.791 61.1951 140.552 62.0217 140.643 62.8456C140.735 63.6696 141.15 64.4236 141.797 64.9416C142.444 65.4596 143.271 65.6992 144.095 65.6078C144.919 65.5164 145.673 65.1013 146.191 64.4541Z" fill="#383737"/>
</g>
<defs>
<clipPath id="clip0_3753_3861">
<rect width="200" height="200" fill="white"/>
</clipPath>
</defs>
</svg>
