<svg width="200" height="200" viewBox="0 0 200 200" fill="none" xmlns="http://www.w3.org/2000/svg">
<g clip-path="url(#clip0_3753_3855)">
<path fill-rule="evenodd" clip-rule="evenodd" d="M31.2246 196.847L0 130.878L28.7109 117.289L59.9328 183.258L31.2246 196.847ZM93.5359 120.372C92.6454 120.369 91.7921 120.014 91.1625 119.384C77.9656 106.184 53.0328 109.866 38.0879 121.42L62.7156 173.47L65.4574 170.866C68.0004 168.393 71.419 167.026 74.9664 167.065H135.991C138.223 167.109 140.436 166.65 142.466 165.723C144.497 164.795 146.293 163.423 147.721 161.707L198.796 102.593C199.304 102.035 199.668 101.362 199.857 100.632C200.046 99.9015 200.055 99.1363 199.883 98.402C199.743 97.6597 199.426 96.9621 198.959 96.3682C198.492 95.7743 197.889 95.3016 197.201 94.9899C191.466 92.2661 182.367 92.2063 177.67 96.9039L148.612 125.966C148.875 127.125 149.008 128.31 149.01 129.498C149.007 133.696 147.339 137.721 144.37 140.69C141.402 143.659 137.377 145.328 133.179 145.332H98.9453C98.0562 145.332 97.2035 144.979 96.5748 144.35C95.9462 143.722 95.593 142.869 95.593 141.98C95.593 141.091 95.9462 140.238 96.5748 139.609C97.2035 138.981 98.0562 138.627 98.9453 138.627H133.178C135.589 138.612 137.896 137.643 139.595 135.933C141.294 134.222 142.248 131.909 142.248 129.498C142.248 127.087 141.294 124.774 139.595 123.064C137.896 121.354 135.589 120.385 133.178 120.369L93.5359 120.372ZM137.314 35.7235V14.5907L131.441 20.4602C130.812 21.0784 129.964 21.4234 129.082 21.42C128.2 21.4167 127.355 21.0654 126.73 20.4424C126.106 19.8195 125.752 18.9752 125.746 18.0931C125.741 17.2109 126.083 16.3622 126.7 15.7313L138.296 4.11762C138.93 3.49877 139.78 3.15234 140.666 3.15234C141.552 3.15234 142.403 3.49877 143.037 4.11762L154.632 15.7313C154.948 16.0415 155.199 16.4112 155.371 16.819C155.543 17.2268 155.633 17.6647 155.634 18.1073C155.636 18.5498 155.55 18.9884 155.381 19.3975C155.212 19.8066 154.964 20.1782 154.65 20.4907C154.337 20.8033 153.965 21.0506 153.555 21.2184C153.146 21.3862 152.707 21.4711 152.264 21.4682C151.822 21.4654 151.384 21.3749 150.977 21.2018C150.569 21.0288 150.2 20.7767 149.891 20.4602L144.019 14.5938V35.7266C144.011 40.4229 142.143 44.9247 138.823 48.246C135.503 51.5673 131.001 53.4373 126.305 53.4461H101.684C98.7686 53.4479 95.9731 54.605 93.9095 56.664C91.846 58.7229 90.6828 61.5159 90.6746 64.4309V90.2903C90.6746 91.1794 90.3214 92.0321 89.6927 92.6607C89.064 93.2894 88.2114 93.6426 87.3223 93.6426C86.4332 93.6426 85.5805 93.2894 84.9518 92.6607C84.3231 92.0321 83.9699 91.1794 83.9699 90.2903V64.4309C83.978 59.7376 85.8476 55.2393 89.1685 51.9229C92.4894 48.6066 96.9903 46.7431 101.684 46.7414H126.305C129.225 46.7377 132.024 45.5757 134.088 43.5105C136.152 41.4453 137.312 38.6456 137.314 35.7258V35.7235ZM87.3223 3.15981C84.4455 3.16159 81.6339 4.01625 79.2429 5.61577C76.8519 7.21528 74.9888 9.48781 73.8891 12.1461C72.7895 14.8043 72.5027 17.7289 73.065 20.5501C73.6273 23.3714 75.0135 25.9625 77.0482 27.996C79.083 30.0296 81.675 31.4141 84.4966 31.9747C87.3182 32.5353 90.2426 32.2467 92.9002 31.1454C95.5577 30.0441 97.8291 28.1796 99.4272 25.7876C101.025 23.3955 101.878 20.5834 101.878 17.7067C101.872 13.849 100.336 10.1512 97.6074 7.42417C94.8787 4.69718 91.18 3.16363 87.3223 3.15981ZM154.635 70.2664L145.8 79.0946L154.635 87.9247C155.263 88.5538 155.614 89.4063 155.613 90.2948C155.612 91.1833 155.258 92.0349 154.629 92.6623C154.317 92.973 153.948 93.2193 153.541 93.3871C153.134 93.5549 152.698 93.6409 152.259 93.6403C151.37 93.6391 150.518 93.285 149.891 92.6559L141.063 83.8278L132.23 92.6559C131.603 93.285 130.752 93.6392 129.863 93.6407C128.975 93.6421 128.123 93.2906 127.494 92.6635C126.864 92.0364 126.51 91.1851 126.509 90.2968C126.507 89.4086 126.859 88.5561 127.486 87.927L136.322 79.0969L127.486 70.2688C127.173 69.9574 126.925 69.5875 126.755 69.1801C126.586 68.7728 126.498 68.336 126.497 67.8948C126.496 67.4535 126.582 67.0164 126.75 66.6084C126.918 66.2004 127.165 65.8295 127.477 65.5168C127.788 65.2042 128.158 64.956 128.565 64.7863C128.973 64.6166 129.409 64.5289 129.851 64.528C130.292 64.5271 130.729 64.6132 131.137 64.7812C131.545 64.9493 131.916 65.1961 132.229 65.5075L141.061 74.3356L149.889 65.5075C150.202 65.196 150.573 64.9491 150.981 64.7809C151.389 64.6126 151.826 64.5264 152.267 64.5272C152.708 64.5279 153.145 64.6155 153.552 64.785C153.96 64.9545 154.33 65.2026 154.641 65.5151C154.953 65.8276 155.2 66.1984 155.368 66.6063C155.536 67.0142 155.622 67.4513 155.622 67.8925C155.621 68.3338 155.533 68.7706 155.364 69.1779C155.194 69.5853 154.946 69.9553 154.634 70.2668L154.635 70.2664Z" fill="#383737"/>
</g>
<defs>
<clipPath id="clip0_3753_3855">
<rect width="200" height="200" fill="white"/>
</clipPath>
</defs>
</svg>
