<svg width="200" height="200" viewBox="0 0 200 200" fill="none" xmlns="http://www.w3.org/2000/svg">
<path d="M157.037 12H42.9631C25.4076 12 11.1113 26.2962 11.1113 43.9259V126.667C11.1113 144.222 25.4076 158.519 42.9631 158.519L70.6667 158.815L83.6297 180.444C89.6071 190.512 104.161 190.528 110.148 180.444L123.63 158.519H157.037C174.593 158.519 188.889 144.222 188.889 126.667V43.9259C188.889 26.2962 174.593 12 157.037 12ZM135.916 92.3584H129.071C128.35 95.1769 127.233 97.8168 125.782 100.256L130.635 105.112C133.529 108.005 133.529 112.693 130.635 115.586C129.189 117.033 127.293 117.756 125.398 117.756C123.503 117.756 121.608 117.033 120.161 115.586L115.321 110.745C112.878 112.206 110.232 113.33 107.408 114.053V120.867C107.408 124.961 104.091 128.274 100 128.274C95.9095 128.274 92.5928 124.961 92.5928 120.867V114.053C89.7694 113.33 87.125 112.207 84.6827 110.747L79.8469 115.586C78.4001 117.033 76.5012 117.756 74.606 117.756C72.7107 117.756 70.8155 117.033 69.3687 115.586C66.4752 112.7 66.4752 108.005 69.3651 105.112L74.2176 100.255C72.7668 97.8163 71.6501 95.1765 70.9299 92.3584H64.0844C59.9937 92.3584 56.677 89.0454 56.677 84.951C56.677 80.8567 59.9937 77.5436 64.0844 77.5436H70.9158C71.6338 74.7211 72.7537 72.0785 74.2072 69.6362L69.3651 64.7904C66.4752 61.8969 66.4752 57.2022 69.3687 54.3159C72.2622 51.4224 76.9533 51.4224 79.8469 54.3159L84.6768 59.1494C87.1209 57.6905 89.7671 56.5683 92.5928 55.8468V49.0352C92.5928 44.9409 95.9095 41.6278 100 41.6278C104.091 41.6278 107.408 44.9409 107.408 49.0352V55.8468C110.235 56.5688 112.882 57.6909 115.327 59.1512L120.161 54.3159C123.047 51.4224 127.742 51.4224 130.635 54.3159C133.529 57.2094 133.529 61.8969 130.635 64.7904L125.793 69.6348C127.247 72.0776 128.367 74.7206 129.085 77.5436H135.916C140.007 77.5436 143.323 80.8567 143.323 84.951C143.323 89.0454 140.007 92.3584 135.916 92.3584Z" fill="#383737"/>
<path d="M115.292 84.9212C115.292 76.4865 108.431 69.6289 100 69.6289C91.5693 69.6289 84.708 76.4865 84.708 84.9212C84.708 93.3847 91.5693 100.271 100 100.271C108.431 100.271 115.292 93.3847 115.292 84.9212Z" fill="#383737"/>
</svg>
